<svg xmlns="http://www.w3.org/2000/svg" xmlns:xlink="http://www.w3.org/1999/xlink" width="157" zoomAndPan="magnify" viewBox="0 0 117.75 117.749996" height="157" preserveAspectRatio="xMidYMid meet" version="1.0"><defs><clipPath id="e1e55d02a2"><path d="M 60 58 L 102 58 L 102 97 L 60 97 Z M 60 58 " clip-rule="nonzero"/></clipPath><clipPath id="bc515c2bea"><path d="M 6.199219 7.835938 L 100.394531 3.371094 L 104.824219 96.816406 L 10.632812 101.28125 Z M 6.199219 7.835938 " clip-rule="nonzero"/></clipPath><clipPath id="971f15c7a1"><path d="M 6.199219 7.835938 L 100.394531 3.371094 L 104.824219 96.816406 L 10.632812 101.28125 Z M 6.199219 7.835938 " clip-rule="nonzero"/></clipPath><clipPath id="d4c1df8523"><path d="M 81 63 L 94 63 L 94 75 L 81 75 Z M 81 63 " clip-rule="nonzero"/></clipPath><clipPath id="0c1de75c8d"><path d="M 6.199219 7.835938 L 100.394531 3.371094 L 104.824219 96.816406 L 10.632812 101.28125 Z M 6.199219 7.835938 " clip-rule="nonzero"/></clipPath><clipPath id="77f605fcb8"><path d="M 6.199219 7.835938 L 100.394531 3.371094 L 104.824219 96.816406 L 10.632812 101.28125 Z M 6.199219 7.835938 " clip-rule="nonzero"/></clipPath><clipPath id="44ee5aa6ce"><path d="M 68 60 L 86 60 L 86 66 L 68 66 Z M 68 60 " clip-rule="nonzero"/></clipPath><clipPath id="80890741a1"><path d="M 6.199219 7.835938 L 100.394531 3.371094 L 104.824219 96.816406 L 10.632812 101.28125 Z M 6.199219 7.835938 " clip-rule="nonzero"/></clipPath><clipPath id="b4f59248d0"><path d="M 6.199219 7.835938 L 100.394531 3.371094 L 104.824219 96.816406 L 10.632812 101.28125 Z M 6.199219 7.835938 " clip-rule="nonzero"/></clipPath><clipPath id="a36d179ed2"><path d="M 9 53 L 52 53 L 52 94 L 9 94 Z M 9 53 " clip-rule="nonzero"/></clipPath><clipPath id="67368b6ddd"><path d="M 6.199219 7.835938 L 100.394531 3.371094 L 104.824219 96.816406 L 10.632812 101.28125 Z M 6.199219 7.835938 " clip-rule="nonzero"/></clipPath><clipPath id="ce8abed149"><path d="M 6.199219 7.835938 L 100.394531 3.371094 L 104.824219 96.816406 L 10.632812 101.28125 Z M 6.199219 7.835938 " clip-rule="nonzero"/></clipPath><clipPath id="e13ba09085"><path d="M 32 64 L 47 64 L 47 75 L 32 75 Z M 32 64 " clip-rule="nonzero"/></clipPath><clipPath id="43708e5a1e"><path d="M 6.199219 7.835938 L 100.394531 3.371094 L 104.824219 96.816406 L 10.632812 101.28125 Z M 6.199219 7.835938 " clip-rule="nonzero"/></clipPath><clipPath id="5a047b228c"><path d="M 6.199219 7.835938 L 100.394531 3.371094 L 104.824219 96.816406 L 10.632812 101.28125 Z M 6.199219 7.835938 " clip-rule="nonzero"/></clipPath><clipPath id="763b44ce97"><path d="M 23 55 L 41 55 L 41 63 L 23 63 Z M 23 55 " clip-rule="nonzero"/></clipPath><clipPath id="72699b1a6f"><path d="M 6.199219 7.835938 L 100.394531 3.371094 L 104.824219 96.816406 L 10.632812 101.28125 Z M 6.199219 7.835938 " clip-rule="nonzero"/></clipPath><clipPath id="94448d8c12"><path d="M 6.199219 7.835938 L 100.394531 3.371094 L 104.824219 96.816406 L 10.632812 101.28125 Z M 6.199219 7.835938 " clip-rule="nonzero"/></clipPath><clipPath id="0ccee0ebb6"><path d="M 33 8 L 96 8 L 96 63 L 33 63 Z M 33 8 " clip-rule="nonzero"/></clipPath><clipPath id="d67fff8a9e"><path d="M 6.199219 7.835938 L 100.394531 3.371094 L 104.824219 96.816406 L 10.632812 101.28125 Z M 6.199219 7.835938 " clip-rule="nonzero"/></clipPath><clipPath id="a0b6f39d7e"><path d="M 6.199219 7.835938 L 100.394531 3.371094 L 104.824219 96.816406 L 10.632812 101.28125 Z M 6.199219 7.835938 " clip-rule="nonzero"/></clipPath><clipPath id="b67c3d06cb"><path d="M 0 0 L 116.753906 0 L 116.753906 116.753906 L 0 116.753906 Z M 0 0 " clip-rule="nonzero"/></clipPath><clipPath id="4fc46aabe4"><path d="M 58.398438 0 C 26.144531 0 0 26.144531 0 58.398438 C 0 90.652344 26.144531 116.800781 58.398438 116.800781 C 90.652344 116.800781 116.800781 90.652344 116.800781 58.398438 C 116.800781 26.144531 90.652344 0 58.398438 0 Z M 58.398438 0 " clip-rule="nonzero"/></clipPath></defs><g clip-path="url(#e1e55d02a2)"><g clip-path="url(#bc515c2bea)"><g clip-path="url(#971f15c7a1)"><path fill="#fffdff" d="M 99.585938 67.082031 C 99.585938 67.082031 94.636719 55.683594 85.007812 59.199219 C 85.007812 59.199219 80.4375 60.96875 74.699219 59.609375 C 74.535156 59.574219 74.371094 59.542969 74.207031 59.507812 C 74.207031 59.507812 69.546875 57.609375 64.375 63.035156 C 64.375 63.035156 56.601562 71.242188 61.894531 83.890625 C 61.894531 83.890625 67.523438 96.765625 78.699219 96.5625 C 78.699219 96.5625 93.378906 97.171875 98.511719 85.703125 C 103.640625 74.234375 99.585938 67.082031 99.585938 67.082031 Z M 99.585938 67.082031 " fill-opacity="1" fill-rule="nonzero"/></g></g></g><g clip-path="url(#d4c1df8523)"><g clip-path="url(#0c1de75c8d)"><g clip-path="url(#77f605fcb8)"><path fill="#a40813" d="M 93.660156 69.523438 C 93.660156 69.523438 95.273438 60.46875 87.691406 64.175781 C 87.691406 64.175781 79.582031 67.824219 82.027344 72.117188 C 82.027344 72.117188 84.332031 74.171875 87.917969 74.082031 C 87.957031 74.082031 91.792969 74.917969 93.660156 69.523438 Z M 93.660156 69.523438 " fill-opacity="1" fill-rule="nonzero"/></g></g></g><g clip-path="url(#44ee5aa6ce)"><g clip-path="url(#80890741a1)"><g clip-path="url(#b4f59248d0)"><path fill="#a40813" d="M 85.671875 60.3125 C 85.671875 60.3125 80.808594 65.359375 75.90625 65.265625 C 75.90625 65.265625 65.386719 65.4375 69.203125 61.582031 C 69.203125 61.582031 71.492188 59.921875 72.523438 60.199219 C 72.523438 60.199219 71.460938 67.925781 85.671875 60.3125 Z M 85.671875 60.3125 " fill-opacity="1" fill-rule="nonzero"/></g></g></g><g clip-path="url(#a36d179ed2)"><g clip-path="url(#67368b6ddd)"><g clip-path="url(#ce8abed149)"><path fill="#fffdff" d="M 51.015625 72.242188 C 51.015625 72.242188 50.792969 59.804688 40.566406 59.347656 C 40.566406 59.347656 35.703125 59.210938 30.886719 55.765625 C 30.761719 55.691406 30.632812 55.574219 30.503906 55.457031 C 30.503906 55.457031 26.949219 51.914062 20.070312 54.933594 C 20.070312 54.933594 9.757812 59.503906 9.757812 73.257812 C 9.757812 73.257812 10.015625 87.289062 20.414062 91.40625 C 20.414062 91.40625 33.769531 97.589844 42.910156 88.953125 C 52.050781 80.316406 51.015625 72.242188 51.015625 72.242188 Z M 51.015625 72.242188 " fill-opacity="1" fill-rule="nonzero"/></g></g></g><g clip-path="url(#e13ba09085)"><g clip-path="url(#43708e5a1e)"><g clip-path="url(#5a047b228c)"><path fill="#a40813" d="M 44.644531 72.21875 C 44.644531 72.21875 49.625 64.46875 41.160156 64.996094 C 41.160156 64.996094 32.273438 65.253906 32.914062 70.160156 C 32.914062 70.160156 34.269531 72.914062 37.597656 74.222656 C 37.597656 74.222656 40.847656 76.480469 44.644531 72.21875 Z M 44.644531 72.21875 " fill-opacity="1" fill-rule="nonzero"/></g></g></g><g clip-path="url(#763b44ce97)"><g clip-path="url(#72699b1a6f)"><g clip-path="url(#94448d8c12)"><path fill="#a40813" d="M 40.792969 60.644531 C 40.792969 60.644531 34.351562 63.441406 29.890625 61.488281 C 29.890625 61.488281 20.117188 57.625 25.121094 55.550781 C 25.121094 55.550781 27.824219 54.890625 28.710938 55.542969 C 28.667969 55.503906 24.742188 62.222656 40.792969 60.644531 Z M 40.792969 60.644531 " fill-opacity="1" fill-rule="nonzero"/></g></g></g><g clip-path="url(#0ccee0ebb6)"><g clip-path="url(#d67fff8a9e)"><g clip-path="url(#a0b6f39d7e)"><path fill="#fffdff" d="M 79.269531 62.125 C 79.269531 62.125 79.488281 34.890625 61.550781 21.621094 C 61.550781 21.621094 75.640625 34.625 88.761719 27.347656 C 88.761719 27.347656 90.011719 27.003906 95.503906 23.191406 C 95.503906 23.191406 89.929688 23.578125 82.085938 15.664062 C 82.085938 15.664062 70.671875 4.777344 61.027344 10.542969 C 61.027344 10.542969 56.84375 14.414062 54 14.671875 C 54 14.671875 70.199219 14.597656 73.898438 21.195312 C 73.898438 21.195312 63.230469 13.949219 54.113281 17.113281 C 54.113281 17.113281 49.105469 49.1875 33.972656 59.703125 L 37.132812 60.082031 C 37.132812 60.082031 48.519531 47.992188 51.753906 35.308594 C 51.753906 35.308594 54.894531 22.382812 55.144531 19.921875 C 55.144531 19.921875 64.132812 23.539062 73.074219 39.972656 C 73.074219 39.972656 77.566406 51.144531 77.800781 62.15625 L 79.265625 62.085938 Z M 79.269531 62.125 " fill-opacity="1" fill-rule="nonzero"/></g></g></g><g clip-path="url(#b67c3d06cb)"><g clip-path="url(#4fc46aabe4)"><path stroke-linecap="butt" transform="matrix(0.748411, 0, 0, 0.748411, 0.00000215, -0.000000997881)" fill="none" stroke-linejoin="miter" d="M 78.029904 0.00000133333 C 34.933386 0.00000133333 -0.00000287275 34.93339 -0.00000287275 78.029908 C -0.00000287275 121.126426 34.933386 156.065035 78.029904 156.065035 C 121.126422 156.065035 156.065031 121.126426 156.065031 78.029908 C 156.065031 34.93339 121.126422 0.00000133333 78.029904 0.00000133333 Z M 78.029904 0.00000133333 " stroke="#fffdff" stroke-width="8" stroke-opacity="1" stroke-miterlimit="4"/></g></g></svg>